<?xml version="1.0" encoding="UTF-8"?>
<svg version="1.1" xmlns="http://www.w3.org/2000/svg" width="182" height="234">
<path d="M0 0 C1.36632314 21.98316337 1.09752153 43.98564071 1 66 C-2.67475757 64.5398777 -4.13960215 62.7394286 -6.234375 59.4296875 C-7.09482422 58.08583984 -7.09482422 58.08583984 -7.97265625 56.71484375 C-8.55917969 55.77769531 -9.14570313 54.84054688 -9.75 53.875 C-10.35199219 52.93011719 -10.95398438 51.98523438 -11.57421875 51.01171875 C-13.0581689 48.67979709 -14.53295527 46.34258007 -16 44 C-18.03753406 47.05630109 -18.90986805 49.50963984 -19.98828125 53.00390625 C-20.36243164 54.21087158 -20.73658203 55.41783691 -21.12207031 56.66137695 C-21.5191494 57.96166913 -21.91595382 59.26204521 -22.3125 60.5625 C-22.72089151 61.88960927 -23.12942077 63.21667615 -23.53808594 64.54370117 C-25.91726644 72.29877395 -28.19781395 80.07543303 -30.31640625 87.90600586 C-32.33361895 95.33648698 -34.65263656 102.66823504 -37 110 C-38.32 110 -39.64 110 -41 110 C-41.2673999 109.07662842 -41.5347998 108.15325684 -41.81030273 107.2019043 C-42.80302425 103.77448262 -43.79653476 100.34729007 -44.7902832 96.92016602 C-45.22018598 95.43715549 -45.64987507 93.954083 -46.0793457 92.47094727 C-46.69686548 90.33854081 -47.31515462 88.20635873 -47.93359375 86.07421875 C-48.12529648 85.41161545 -48.31699921 84.74901215 -48.51451111 84.06632996 C-49.30014582 81.36010841 -50.10874958 78.67375126 -51 76 C-58.2248876 90.34653984 -65.3958424 104.70877413 -72.28833008 119.21875 C-75.76316492 126.52952613 -79.34433662 133.77807806 -83 141 C-83.51304688 142.093125 -84.02609375 143.18625 -84.5546875 144.3125 C-86 147 -86 147 -88.125 147.9375 C-89.053125 147.9684375 -89.053125 147.9684375 -90 148 C-91.87921281 146.12078719 -91.486362 142.93376524 -91.71875 140.41015625 C-91.78155151 139.7504332 -91.84435303 139.09071014 -91.90905762 138.41099548 C-92.11027133 136.29520331 -92.30574304 134.17894153 -92.5 132.0625 C-92.75583611 129.28209842 -93.0170311 126.50227212 -93.28125 123.72265625 C-93.39533203 122.48265869 -93.50941406 121.24266113 -93.62695312 119.96508789 C-93.82377416 117.07573073 -93.82377416 117.07573073 -95 115 C-95.20692674 113.57558242 -95.36676305 112.14412696 -95.5 110.7109375 C-95.5825 109.85113281 -95.665 108.99132812 -95.75 108.10546875 C-95.8325 107.20441406 -95.915 106.30335938 -96 105.375 C-96.24728582 102.74372432 -96.49720215 100.11326722 -96.76635742 97.48413086 C-96.91491739 95.9046139 -97.03081429 94.32142694 -97.1027832 92.73657227 C-97.34230565 89.05224235 -97.79104795 87.2418867 -100.23046875 84.41796875 C-101.20628906 83.68191406 -102.18210938 82.94585937 -103.1875 82.1875 C-103.98619507 81.56766235 -103.98619507 81.56766235 -104.80102539 80.93530273 C-105.93761387 80.05586843 -107.08166785 79.18601076 -108.23242188 78.32519531 C-110.5801861 76.5650207 -112.88449326 74.75224024 -115.19018555 72.9375 C-116.3586839 72.01798306 -117.52944031 71.10132863 -118.70239258 70.1875 C-123.40871829 66.51123068 -127.97112333 62.68483393 -132.49853516 58.79125977 C-136.09567792 55.71223551 -139.78561976 52.87075612 -143.70703125 50.21875 C-144.13371094 49.8165625 -144.56039062 49.414375 -145 49 C-145 48.01 -145 47.02 -145 46 C-133.85159652 46.58382626 -122.82179365 47.75902386 -111.74185181 49.0987854 C-96.1800778 50.97836415 -80.62788176 52.76086618 -65 54 C-66.10214844 53.39414063 -67.20429687 52.78828125 -68.33984375 52.1640625 C-73.23833321 49.46364106 -78.12100846 46.7354589 -83 44 C-83.83192871 43.53577637 -84.66385742 43.07155273 -85.52099609 42.59326172 C-87.89626694 41.26203488 -90.2617304 39.91489274 -92.625 38.5625 C-93.36484131 38.15016113 -94.10468262 37.73782227 -94.86694336 37.31298828 C-96.6297485 36.2933574 -98.32373922 35.15640775 -100 34 C-100 33.01 -100 32.02 -100 31 C-82.18 30.01 -64.36 29.02 -46 28 C-50.95 27.01 -55.9 26.02 -61 25 C-61 23.68 -61 22.36 -61 21 C-59.9483667 20.61255615 -58.8967334 20.2251123 -57.81323242 19.82592773 C-57.11376999 19.56823105 -56.41430756 19.31053436 -55.69364929 19.04502869 C-48.18117523 16.27727509 -48.18117523 16.27727509 -40.66870117 13.50952148 C-39.00428442 12.89631531 -37.33990674 12.28300306 -35.67556763 11.66958618 C-33.99999538 11.0525105 -32.32411056 10.43628292 -30.6479187 9.82089233 C-26.30393619 8.22479655 -21.96689049 6.6128436 -17.63916016 4.97314453 C-16.77462723 4.64798355 -15.9100943 4.32282257 -15.0193634 3.98780823 C-13.3710986 3.36743219 -11.72473179 2.74198217 -10.08061218 2.11070251 C-8.97010246 1.69444359 -8.97010246 1.69444359 -7.8371582 1.26977539 C-7.19059769 1.02385147 -6.54403717 0.77792755 -5.87788391 0.52455139 C-4 0 -4 0 0 0 Z " fill="#DC9522" transform="translate(152,69)"/>
<path d="M0 0 C1.36632314 21.98316337 1.09752153 43.98564071 1 66 C-2.67475757 64.5398777 -4.13960215 62.7394286 -6.234375 59.4296875 C-7.09482422 58.08583984 -7.09482422 58.08583984 -7.97265625 56.71484375 C-8.55917969 55.77769531 -9.14570313 54.84054688 -9.75 53.875 C-10.35199219 52.93011719 -10.95398438 51.98523438 -11.57421875 51.01171875 C-13.0581689 48.67979709 -14.53295527 46.34258007 -16 44 C-18.03753406 47.05630109 -18.90986805 49.50963984 -19.98828125 53.00390625 C-20.36243164 54.21087158 -20.73658203 55.41783691 -21.12207031 56.66137695 C-21.5191494 57.96166913 -21.91595382 59.26204521 -22.3125 60.5625 C-22.72089151 61.88960927 -23.12942077 63.21667615 -23.53808594 64.54370117 C-25.91726644 72.29877395 -28.19781395 80.07543303 -30.31640625 87.90600586 C-32.33361895 95.33648698 -34.65263656 102.66823504 -37 110 C-38.32 110 -39.64 110 -41 110 C-41.2673999 109.07662842 -41.5347998 108.15325684 -41.81030273 107.2019043 C-42.80302425 103.77448262 -43.79653476 100.34729007 -44.7902832 96.92016602 C-45.22018598 95.43715549 -45.64987507 93.954083 -46.0793457 92.47094727 C-46.69686548 90.33854081 -47.31515462 88.20635873 -47.93359375 86.07421875 C-48.12529648 85.41161545 -48.31699921 84.74901215 -48.51451111 84.06632996 C-49.30014582 81.36010841 -50.10874958 78.67375126 -51 76 C-58.2248876 90.34653984 -65.3958424 104.70877413 -72.28833008 119.21875 C-75.76316492 126.52952613 -79.34433662 133.77807806 -83 141 C-83.51304688 142.093125 -84.02609375 143.18625 -84.5546875 144.3125 C-86 147 -86 147 -88.125 147.9375 C-89.053125 147.9684375 -89.053125 147.9684375 -90 148 C-91.87921281 146.12078719 -91.486362 142.93376524 -91.71875 140.41015625 C-91.78155151 139.7504332 -91.84435303 139.09071014 -91.90905762 138.41099548 C-92.11027133 136.29520331 -92.30574304 134.17894153 -92.5 132.0625 C-92.75583611 129.28209842 -93.0170311 126.50227212 -93.28125 123.72265625 C-93.39533203 122.48265869 -93.50941406 121.24266113 -93.62695312 119.96508789 C-93.82377416 117.07573073 -93.82377416 117.07573073 -95 115 C-95.20692674 113.57558242 -95.36676305 112.14412696 -95.5 110.7109375 C-95.5825 109.85113281 -95.665 108.99132812 -95.75 108.10546875 C-95.8325 107.20441406 -95.915 106.30335938 -96 105.375 C-96.24728582 102.74372432 -96.49720215 100.11326722 -96.76635742 97.48413086 C-96.91491739 95.9046139 -97.03081429 94.32142694 -97.1027832 92.73657227 C-97.34230565 89.05224235 -97.79104795 87.2418867 -100.23046875 84.41796875 C-101.20628906 83.68191406 -102.18210938 82.94585937 -103.1875 82.1875 C-103.98619507 81.56766235 -103.98619507 81.56766235 -104.80102539 80.93530273 C-105.93761387 80.05586843 -107.08166785 79.18601076 -108.23242188 78.32519531 C-110.5801861 76.5650207 -112.88449326 74.75224024 -115.19018555 72.9375 C-116.3586839 72.01798306 -117.52944031 71.10132863 -118.70239258 70.1875 C-123.40871829 66.51123068 -127.97112333 62.68483393 -132.49853516 58.79125977 C-136.09567792 55.71223551 -139.78561976 52.87075612 -143.70703125 50.21875 C-144.13371094 49.8165625 -144.56039062 49.414375 -145 49 C-145 48.01 -145 47.02 -145 46 C-133.85159652 46.58382626 -122.82179365 47.75902386 -111.74185181 49.0987854 C-96.1800778 50.97836415 -80.62788176 52.76086618 -65 54 C-66.10214844 53.39414063 -67.20429687 52.78828125 -68.33984375 52.1640625 C-73.23833321 49.46364106 -78.12100846 46.7354589 -83 44 C-83.83192871 43.53577637 -84.66385742 43.07155273 -85.52099609 42.59326172 C-87.89626694 41.26203488 -90.2617304 39.91489274 -92.625 38.5625 C-93.36484131 38.15016113 -94.10468262 37.73782227 -94.86694336 37.31298828 C-96.6297485 36.2933574 -98.32373922 35.15640775 -100 34 C-100 33.01 -100 32.02 -100 31 C-82.18 30.01 -64.36 29.02 -46 28 C-50.95 27.01 -55.9 26.02 -61 25 C-61 23.68 -61 22.36 -61 21 C-59.9483667 20.61255615 -58.8967334 20.2251123 -57.81323242 19.82592773 C-57.11376999 19.56823105 -56.41430756 19.31053436 -55.69364929 19.04502869 C-48.18117523 16.27727509 -48.18117523 16.27727509 -40.66870117 13.50952148 C-39.00428442 12.89631531 -37.33990674 12.28300306 -35.67556763 11.66958618 C-33.99999538 11.0525105 -32.32411056 10.43628292 -30.6479187 9.82089233 C-26.30393619 8.22479655 -21.96689049 6.6128436 -17.63916016 4.97314453 C-16.77462723 4.64798355 -15.9100943 4.32282257 -15.0193634 3.98780823 C-13.3710986 3.36743219 -11.72473179 2.74198217 -10.08061218 2.11070251 C-8.97010246 1.69444359 -8.97010246 1.69444359 -7.8371582 1.26977539 C-7.19059769 1.02385147 -6.54403717 0.77792755 -5.87788391 0.52455139 C-4 0 -4 0 0 0 Z M-3 2 C-4.14612631 3.42559273 -5.23860875 4.8942307 -6.3125 6.375 C-7.07175781 7.35855469 -7.83101563 8.34210938 -8.61328125 9.35546875 C-10.53592282 12.04287568 -11.6721959 14.63560119 -12.79296875 17.73828125 C-15.13331138 23.40537344 -17.5236467 27.90683028 -23 31 C-33.18103194 33.5584276 -44.66354344 31.94763868 -55.01779175 31.34260559 C-64.06914959 30.84640066 -72.97094464 31.33195662 -82 32 C-83.4318308 32.09844426 -84.86371437 32.19612477 -86.2956543 32.29296875 C-89.53145981 32.51706569 -92.76595171 32.75203871 -96 33 C-93.51583651 35.79278452 -90.78245277 37.3864611 -87.51953125 39.1796875 C-86.43736328 39.77910156 -85.35519531 40.37851563 -84.24023438 40.99609375 C-83.10908203 41.61613281 -81.97792969 42.23617187 -80.8125 42.875 C-60.4575 54.085 -60.4575 54.085 -59 57 C-59.58265625 56.9278125 -60.1653125 56.855625 -60.765625 56.78125 C-67.53165166 56.01528472 -74.19521851 55.89477142 -81 56 C-79.55616857 58.88766287 -77.75142529 59.00718603 -74.75 60.0625 C-73.79609375 60.40410156 -72.8421875 60.74570313 -71.859375 61.09765625 C-69.24547275 61.92253524 -66.69636852 62.52272309 -64 63 C-64 63.66 -64 64.32 -64 65 C-63.01 65 -62.02 65 -61 65 C-61 65.99 -61 66.98 -61 68 C-62.3921875 68.4021875 -62.3921875 68.4021875 -63.8125 68.8125 C-66.96800801 69.98808142 -67.74361431 70.73218958 -70 73 C-71.8671875 74.0625 -71.8671875 74.0625 -73.875 75 C-76.14437923 76.08535528 -78.24416482 77.15420936 -80.375 78.5 C-83.74648445 80.42656255 -87.26741729 81.74999062 -90.890625 83.1328125 C-92.94921876 83.82084166 -92.94921876 83.82084166 -94 85 C-94.1297876 87.59575204 -94.1852499 90.15338701 -94.1875 92.75 C-94.19974609 93.44738281 -94.21199219 94.14476562 -94.22460938 94.86328125 C-94.23972541 100.49652309 -93.45139128 105.85326648 -92.54125977 111.40478516 C-91.54683836 118.01003986 -90.98789861 124.66317229 -90.375 131.3125 C-90.23993276 132.74677774 -90.1045179 134.18102279 -89.96875 135.61523438 C-89.64184244 139.07645693 -89.31958042 142.53809229 -89 146 C-86.6344902 143.8455535 -85.27700979 141.87163552 -83.93359375 138.9765625 C-83.53906006 138.13762451 -83.14452637 137.29868652 -82.73803711 136.43432617 C-82.30885986 135.50724854 -81.87968262 134.5801709 -81.4375 133.625 C-80.47010902 131.57097397 -79.50124614 129.5176408 -78.53125 127.46484375 C-77.9846875 126.30581543 -77.438125 125.14678711 -76.875 123.95263672 C-73.51521281 116.85315145 -70.09035223 109.78481802 -66.66311646 102.7177124 C-65.44499564 100.2029743 -64.23213201 97.68574295 -63.01928711 95.16845703 C-62.26187209 93.60564103 -61.5041546 92.04297158 -60.74609375 90.48046875 C-60.39756348 89.75436905 -60.0490332 89.02826935 -59.68994141 88.28016663 C-58.33294802 85.4953665 -57.20696999 83.20696999 -55 81 C-54.39688385 79.31238142 -53.86149763 77.59985524 -53.375 75.875 C-53.11460938 74.96492188 -52.85421875 74.05484375 -52.5859375 73.1171875 C-52.39257812 72.41851562 -52.19921875 71.71984375 -52 71 C-51.01 71 -50.02 71 -49 71 C-48.846521 71.97900269 -48.846521 71.97900269 -48.68994141 72.9777832 C-47.46882887 80.25234559 -45.59303472 87.15921519 -43.375 94.1875 C-42.88773438 95.75854492 -42.88773438 95.75854492 -42.390625 97.36132812 C-41.59944592 99.90939016 -40.80251635 102.45549072 -40 105 C-39.34 105 -38.68 105 -38 105 C-34.46695411 94.73913269 -31.19303362 84.44471472 -28.26245117 73.99511719 C-26.24944618 66.8215956 -24.11967751 59.68807079 -21.91601562 52.57080078 C-20.64083863 48.39346688 -19.59242828 44.34215083 -19 40 C-16.39993076 40.36109185 -15.28186815 40.65802654 -13.58374023 42.71826172 C-13.16294189 43.44803223 -12.74214355 44.17780273 -12.30859375 44.9296875 C-11.83873047 45.72503906 -11.36886719 46.52039063 -10.88476562 47.33984375 C-10.16836914 48.59474609 -10.16836914 48.59474609 -9.4375 49.875 C-8.48169879 51.52046233 -7.5221955 53.16378108 -6.55859375 54.8046875 C-6.13892334 55.53671387 -5.71925293 56.26874023 -5.28686523 57.02294922 C-4.02727546 58.95809587 -2.69136713 60.43774251 -1 62 C-0.82043139 31.98558761 -0.82043139 31.98558761 -2 2 C-2.33 2 -2.66 2 -3 2 Z " fill="#E3C8A8" transform="translate(152,69)"/>
<path d="M0 0 C0.33 0 0.66 0 1 0 C2.25792728 19.9920586 2.10120994 39.97911662 2 60 C-0.73309588 56.62496575 -3.19981596 53.24802216 -5.5 49.5625 C-6.10328125 48.60730469 -6.7065625 47.65210938 -7.328125 46.66796875 C-8.30316884 45.11199925 -9.27404554 43.55337515 -10.234375 41.98828125 C-12.34927148 38.60973919 -12.34927148 38.60973919 -16 37 C-16 35.68 -16 34.36 -16 33 C-17.98 33.33 -19.96 33.66 -22 34 C-22.33 34.99 -22.66 35.98 -23 37 C-23.70125 37.268125 -24.4025 37.53625 -25.125 37.8125 C-29.60221191 39.66178318 -32.9308698 43.13878888 -36.50634766 46.35498047 C-48.17550138 56.73400839 -48.17550138 56.73400839 -55.375 56.6875 C-58.0859375 56.38671875 -58.0859375 56.38671875 -60 56 C-58.02 55.505 -58.02 55.505 -56 55 C-58.7906536 51.99723406 -61.48744741 49.95551255 -65.0703125 47.9765625 C-66.05 47.43 -67.0296875 46.8834375 -68.0390625 46.3203125 C-69.05742188 45.76085937 -70.07578125 45.20140625 -71.125 44.625 C-88.50666253 34.98853424 -88.50666253 34.98853424 -93 32 C-93 31.67 -93 31.34 -93 31 C-89.06138484 30.69801809 -85.12171921 30.41667099 -81.18054199 30.150177 C-79.72493737 30.04992746 -78.26960479 29.94564771 -76.8145752 29.83737183 C-67.59448115 29.15946831 -58.5914411 28.96119943 -49.359375 29.53515625 C-32.72826017 31.34292766 -32.72826017 31.34292766 -17.08740234 27.30517578 C-12.64325952 23.03170339 -10.16581626 18.03346075 -7.95849609 12.33837891 C-6.63016488 9.09773795 -4.84506286 6.61267106 -2.75 3.8125 C-2.22921875 3.05582031 -1.7084375 2.29914063 -1.171875 1.51953125 C-0.78515625 1.01808594 -0.3984375 0.51664062 0 0 Z " fill="#FDCE72" transform="translate(149,71)"/>
<path d="M0 0 C8.5792937 -0.42976054 16.58167303 0.40423581 25.03466797 1.71533203 C33.43394348 2.98840074 41.85994134 3.86561405 50.3125 4.6875 C50.99400116 4.75393707 51.67550232 4.82037415 52.37765503 4.88882446 C56.25120084 5.265303 60.12531979 5.63539318 64 6 C62.02 6.99 62.02 6.99 60 8 C60.73605469 8.26554687 61.47210938 8.53109375 62.23046875 8.8046875 C63.69419922 9.33449219 63.69419922 9.33449219 65.1875 9.875 C66.15042969 10.22304687 67.11335938 10.57109375 68.10546875 10.9296875 C70.75634859 11.90990488 73.3813098 12.93720434 76 14 C76 14.66 76 15.32 76 16 C76.99 16 77.98 16 79 16 C79 16.99 79 17.98 79 19 C73.25 22 73.25 22 71 22 C70.505 23.485 70.505 23.485 70 25 C68.328125 26.0625 68.328125 26.0625 66.25 27 C63.92889267 28.08263664 61.79483149 29.12958011 59.625 30.5 C55.61125638 32.79356778 51.31108436 34.35090559 47 36 C46.505 40.95 46.505 40.95 46 46 C45.67 46 45.34 46 45 46 C45.0825 44.72125 45.165 43.4425 45.25 42.125 C44.68461449 37.16819552 42.58791065 35.25362715 38.8125 32.125 C37.1481111 30.8315407 35.46876463 29.56414357 33.77197266 28.31347656 C31.39589312 26.55220515 29.0783786 24.72114926 26.7578125 22.88769531 C25.58766207 21.96392656 24.41448119 21.04398341 23.23828125 20.12792969 C18.18239599 16.18714801 13.29051417 12.07197021 8.42578125 7.8984375 C6.07199256 5.83752507 6.07199256 5.83752507 3 5 C1.3125 2.4375 1.3125 2.4375 0 0 Z " fill="#FDCD71" transform="translate(12,118)"/>
<path d="M0 0 C0 1.32 0 2.64 0 4 C0.99 4.33 1.98 4.66 3 5 C2.01 5 1.02 5 0 5 C-0.19686401 6.3137561 -0.19686401 6.3137561 -0.39770508 7.65405273 C-0.950934 10.72742215 -1.69785625 13.5609249 -2.63671875 16.53515625 C-2.96381836 17.58171387 -3.29091797 18.62827148 -3.62792969 19.70654297 C-3.97758789 20.81400879 -4.32724609 21.92147461 -4.6875 23.0625 C-7.31353053 31.47263999 -9.86716872 39.89265137 -12.25 48.375 C-14.29962509 55.6604168 -16.48644129 62.85853615 -19 70 C-19.66 70 -20.32 70 -21 70 C-22.13568796 66.39911567 -23.25650513 62.79375827 -24.375 59.1875 C-24.85066406 57.68026367 -24.85066406 57.68026367 -25.3359375 56.14257812 C-27.39201 49.48175992 -28.9203265 42.88695669 -30 36 C-30.66 36 -31.32 36 -32 36 C-32 33.69 -32 31.38 -32 29 C-35.48809191 29.77030122 -35.48809191 29.77030122 -39 31 C-39.33 31.99 -39.66 32.98 -40 34 C-43.375 35.75 -43.375 35.75 -47 37 C-47.99 36.67 -48.98 36.34 -50 36 C-44.25 33 -44.25 33 -42 33 C-42 32.01 -42 31.02 -42 30 C-42.99 30 -43.98 30 -45 30 C-45 29.34 -45 28.68 -45 28 C-46.05960938 27.81244141 -46.05960938 27.81244141 -47.140625 27.62109375 C-50.11805164 26.97435763 -52.88237832 26.08941857 -55.75 25.0625 C-56.71421875 24.72347656 -57.6784375 24.38445312 -58.671875 24.03515625 C-61 23 -61 23 -62 21 C-55.85516229 20.91051207 -50.0645551 20.9677353 -44 22 C-38.75315746 22.83202357 -34.74809407 23.09255879 -30.125 20.203125 C-27.32717758 17.88714978 -24.66466604 15.46713407 -22 13 C-20.51693384 11.85276865 -19.01877791 10.72451746 -17.5 9.625 C-15.64638369 8.28191361 -14.01252103 7.01286027 -12.4140625 5.37109375 C-10.68957827 3.69901098 -9.29904526 3.53644389 -7 3 C-6.67 2.34 -6.34 1.68 -6 1 C-3.911361 0.32624548 -2.19636905 0 0 0 Z " fill="#F8A61C" transform="translate(133,104)"/>
<path d="M0 0 C1.36632314 21.98316337 1.09752153 43.98564071 1 66 C-2.67475757 64.5398777 -4.13960215 62.7394286 -6.234375 59.4296875 C-7.09482422 58.08583984 -7.09482422 58.08583984 -7.97265625 56.71484375 C-8.55917969 55.77769531 -9.14570313 54.84054688 -9.75 53.875 C-10.35199219 52.93011719 -10.95398438 51.98523438 -11.57421875 51.01171875 C-13.0581689 48.67979709 -14.53295527 46.34258007 -16 44 C-18.03753406 47.05630109 -18.90986805 49.50963984 -19.98828125 53.00390625 C-20.36243164 54.21087158 -20.73658203 55.41783691 -21.12207031 56.66137695 C-21.5191494 57.96166913 -21.91595382 59.26204521 -22.3125 60.5625 C-22.72089151 61.88960927 -23.12942077 63.21667615 -23.53808594 64.54370117 C-25.91726644 72.29877395 -28.19781395 80.07543303 -30.31640625 87.90600586 C-32.33361895 95.33648698 -34.65263656 102.66823504 -37 110 C-38.32 110 -39.64 110 -41 110 C-41.2673999 109.07662842 -41.5347998 108.15325684 -41.81030273 107.2019043 C-42.80302425 103.77448262 -43.79653476 100.34729007 -44.7902832 96.92016602 C-45.22018598 95.43715549 -45.64987507 93.954083 -46.0793457 92.47094727 C-46.69686548 90.33854081 -47.31515462 88.20635873 -47.93359375 86.07421875 C-48.12529648 85.41161545 -48.31699921 84.74901215 -48.51451111 84.06632996 C-49.30014582 81.36010841 -50.10874958 78.67375126 -51 76 C-58.2248876 90.34653984 -65.3958424 104.70877413 -72.28833008 119.21875 C-75.76316492 126.52952613 -79.34433662 133.77807806 -83 141 C-83.51304688 142.093125 -84.02609375 143.18625 -84.5546875 144.3125 C-86 147 -86 147 -88.125 147.9375 C-89.053125 147.9684375 -89.053125 147.9684375 -90 148 C-91.87921281 146.12078719 -91.486362 142.93376524 -91.71875 140.41015625 C-91.78155151 139.7504332 -91.84435303 139.09071014 -91.90905762 138.41099548 C-92.11027133 136.29520331 -92.30574304 134.17894153 -92.5 132.0625 C-92.75583611 129.28209842 -93.0170311 126.50227212 -93.28125 123.72265625 C-93.39533203 122.48265869 -93.50941406 121.24266113 -93.62695312 119.96508789 C-93.82377416 117.07573073 -93.82377416 117.07573073 -95 115 C-95.20692674 113.57558242 -95.36676305 112.14412696 -95.5 110.7109375 C-95.5825 109.85113281 -95.665 108.99132812 -95.75 108.10546875 C-95.8325 107.20441406 -95.915 106.30335938 -96 105.375 C-96.24728582 102.74372432 -96.49720215 100.11326722 -96.76635742 97.48413086 C-96.91491739 95.9046139 -97.03081429 94.32142694 -97.1027832 92.73657227 C-97.34230565 89.05224235 -97.79104795 87.2418867 -100.23046875 84.41796875 C-101.20628906 83.68191406 -102.18210938 82.94585937 -103.1875 82.1875 C-103.98619507 81.56766235 -103.98619507 81.56766235 -104.80102539 80.93530273 C-105.93761387 80.05586843 -107.08166785 79.18601076 -108.23242188 78.32519531 C-110.58083638 76.56453317 -112.88576116 74.7512187 -115.19213867 72.93603516 C-116.35421976 72.02152009 -117.51844596 71.10972418 -118.68481445 70.20068359 C-124.9409992 65.31225126 -130.97773502 60.17194517 -137 55 C-135.515 54.505 -135.515 54.505 -134 54 C-131.81670279 55.59664948 -129.8734438 57.19493545 -127.875 59 C-126.69256526 60.03517955 -125.5089707 61.06903579 -124.32421875 62.1015625 C-123.74978027 62.6059082 -123.1753418 63.11025391 -122.58349609 63.62988281 C-120.67090214 65.28475134 -118.69890507 66.84213037 -116.6875 68.375 C-112.22366028 71.79197299 -107.86178379 75.3294032 -103.5 78.875 C-102.78030029 79.45942871 -102.06060059 80.04385742 -101.3190918 80.64599609 C-94.90967141 85.86291261 -94.90967141 85.86291261 -94.09765625 91.703125 C-93.93048096 92.90163086 -93.76330566 94.10013672 -93.59106445 95.33496094 C-93.41663818 96.62692383 -93.24221191 97.91888672 -93.0625 99.25 C-92.97318207 99.90327271 -92.88386414 100.55654541 -92.7918396 101.22961426 C-91.3154395 112.04869545 -90.13624868 122.87625578 -89.20556641 133.75585938 C-88.86162693 137.51060005 -88.4290594 141.25412491 -88 145 C-87.73074707 144.43643799 -87.46149414 143.87287598 -87.18408203 143.29223633 C-83.46896095 135.52194262 -79.73724294 127.75967113 -76 120 C-75.44276245 118.84238159 -75.44276245 118.84238159 -74.87426758 117.66137695 C-72.45254737 112.63157309 -70.02551795 107.6043773 -67.5927124 102.57992554 C-66.78057754 100.90096667 -65.96990916 99.22129767 -65.16070557 97.54092407 C-64.01473304 95.16206685 -62.86348187 92.78583491 -61.7109375 90.41015625 C-61.36556946 89.69039612 -61.02020142 88.97063599 -60.66436768 88.22906494 C-59.31515217 85.45946263 -58.19481847 83.19481847 -56 81 C-55.24223736 79.31301018 -54.53888218 77.60109367 -53.875 75.875 C-53.52179688 74.96492188 -53.16859375 74.05484375 -52.8046875 73.1171875 C-52.53914063 72.41851562 -52.27359375 71.71984375 -52 71 C-51.01 71 -50.02 71 -49 71 C-47.67927257 75.35171387 -46.36989161 79.70676281 -45.0625 84.0625 C-44.68931641 85.29162109 -44.31613281 86.52074219 -43.93164062 87.78710938 C-43.57392578 88.98271484 -43.21621094 90.17832031 -42.84765625 91.41015625 C-42.51773682 92.50465088 -42.18781738 93.59914551 -41.84790039 94.72680664 C-40.96353334 98.14077411 -40.4354594 101.50277717 -40 105 C-39.34 105 -38.68 105 -38 105 C-37.8868042 104.44892578 -37.7736084 103.89785156 -37.65698242 103.33007812 C-36.50829664 97.93016535 -35.04212473 92.73893319 -33.3125 87.5 C-30.47282921 78.72614537 -27.95748197 69.87829399 -25.53637695 60.98046875 C-23.59345472 53.90066933 -21.3859163 46.94287779 -19 40 C-14.45558277 40.48942819 -14.45558277 40.48942819 -12.43847656 42.75 C-12.01018555 43.4925 -11.58189453 44.235 -11.140625 45 C-10.66496094 45.804375 -10.18929687 46.60875 -9.69921875 47.4375 C-9.22097656 48.283125 -8.74273437 49.12875 -8.25 50 C-7.27670476 51.66705399 -6.30277993 53.33374061 -5.328125 55 C-4.9043457 55.7425 -4.48056641 56.485 -4.04394531 57.25 C-3.11939569 58.96227318 -3.11939569 58.96227318 -2 60 C-1.82503317 31.48506372 -1.82503317 31.48506372 -3 3 C-7.02211459 4.43393219 -11.04245285 5.87278295 -15.0625 7.3125 C-16.7630957 7.91868164 -16.7630957 7.91868164 -18.49804688 8.53710938 C-25.3967808 10.99923821 -25.3967808 10.99923821 -32.15625 13.8125 C-35 15 -35 15 -37.4375 14.6875 C-37.953125 14.460625 -38.46875 14.23375 -39 14 C-31.02541282 8.68360854 -20.81778782 5.86666956 -11.8125 2.625 C-10.73524658 2.23103027 -10.73524658 2.23103027 -9.63623047 1.82910156 C-6.19128831 0.60900082 -3.70139178 0 0 0 Z " fill="#ECE1CC" transform="translate(152,69)"/>
<path d="M0 0 C0.99 0 1.98 0 3 0 C7.04748515 10.30742198 11.0260766 20.64013997 14.9375 31 C15.3389624 32.05638672 15.7404248 33.11277344 16.15405273 34.20117188 C16.52473877 35.18666016 16.8954248 36.17214844 17.27734375 37.1875 C17.60984131 38.06792969 17.94233887 38.94835937 18.28491211 39.85546875 C19 42 19 42 19 44 C16.17465456 44.23301818 14.54006082 44.36459802 12.1484375 42.75 C11.27058594 41.88375 11.27058594 41.88375 10.375 41 C9.68664062 40.3709375 8.99828125 39.741875 8.2890625 39.09375 C7.53367188 38.4028125 6.77828125 37.711875 6 37 C-0.11758113 31.30364081 -0.11758113 31.30364081 -7.80859375 28.68359375 C-10.91434205 28.95750642 -13.92660971 29.47641192 -17 30 C-19.91341848 30.25180211 -22.83001812 30.40783105 -25.75 30.5625 C-27.14068271 30.64618184 -28.53131333 30.73073666 -29.921875 30.81640625 C-31.44554688 30.90728516 -31.44554688 30.90728516 -33 31 C-32.16967294 26.2520389 -29.20301375 24.47861194 -25.5 21.75 C-24.21574 20.77437957 -22.93318812 19.7965066 -21.65234375 18.81640625 C-21.02569824 18.3383252 -20.39905273 17.86024414 -19.75341797 17.36767578 C-15.9996521 14.4397175 -12.51746521 11.20340582 -9 8 C-2.31905782 2 -2.31905782 2 0 2 C0 1.34 0 0.68 0 0 Z " fill="#E2B367" transform="translate(157,37)"/>
<path d="M0 0 C0.33 0 0.66 0 1 0 C2.25792728 19.9920586 2.10120994 39.97911662 2 60 C-0.73309588 56.62496575 -3.19981596 53.24802216 -5.5 49.5625 C-6.10328125 48.60730469 -6.7065625 47.65210938 -7.328125 46.66796875 C-8.30316884 45.11199925 -9.27404554 43.55337515 -10.234375 41.98828125 C-12.34927148 38.60973919 -12.34927148 38.60973919 -16 37 C-16 35.68 -16 34.36 -16 33 C-16.99 32.67 -17.98 32.34 -19 32 C-18.58655013 26.21170189 -16.17511752 22.79678019 -12.875 18.25 C-12.38016113 17.55132812 -11.88532227 16.85265625 -11.37548828 16.1328125 C-10.3846327 14.73471624 -9.38974852 13.33946537 -8.390625 11.94726562 C-6.51628318 9.32266057 -4.69887888 6.65982337 -2.875 4 C-1.94475682 2.64691901 -0.99720333 1.30451756 0 0 Z " fill="#A68D5E" transform="translate(149,71)"/>
<path d="M0 0 C2.02910711 0.25327449 4.04962145 0.57730068 6.0625 0.9375 C7.16722656 1.13214844 8.27195312 1.32679687 9.41015625 1.52734375 C10.26480469 1.68332031 11.11945313 1.83929688 12 2 C12 2.99 12 3.98 12 5 C8.81234144 5.91563092 5.80534586 6.21439689 2.49707031 6.38891602 C1.39623108 6.44890274 0.29539185 6.50888947 -0.83880615 6.57069397 C-2.02121887 6.63115402 -3.20363159 6.69161407 -4.421875 6.75390625 C-6.24455902 6.85166603 -6.24455902 6.85166603 -8.10406494 6.95140076 C-11.98585904 7.15875809 -15.86791378 7.36069295 -19.75 7.5625 C-22.38152938 7.70211698 -25.01304008 7.8420866 -27.64453125 7.98242188 C-34.09614293 8.32570698 -40.54797695 8.66454027 -47 9 C-45.29240689 9.93149216 -43.58480402 10.86296644 -41.87719727 11.79443359 C-40.87044952 12.34363464 -39.86370178 12.89283569 -38.82644653 13.4586792 C-36.77540073 14.57715766 -34.72371098 15.69445551 -32.67163086 16.81103516 C-29.75385047 18.40427431 -26.84543642 20.01387147 -23.9375 21.625 C-22.90689453 22.18445313 -21.87628906 22.74390625 -20.81445312 23.3203125 C-19.83283203 23.866875 -18.85121094 24.4134375 -17.83984375 24.9765625 C-16.95675537 25.46205566 -16.07366699 25.94754883 -15.16381836 26.44775391 C-12.79443514 28.14746489 -12.18201424 29.39887206 -11 32 C-17.9523528 32.13787993 -24.71057179 31.75310068 -31.6171875 30.9765625 C-33.08480026 30.81720718 -33.08480026 30.81720718 -34.58206177 30.65463257 C-36.63783592 30.43021023 -38.69332635 30.20317477 -40.74853516 29.97363281 C-43.85900714 29.62678337 -46.97039011 29.2893061 -50.08203125 28.953125 C-59.00754329 27.97693626 -67.87158048 26.94592515 -76.71337891 25.36181641 C-79.74242122 24.88252528 -82.68775128 24.80208932 -85.75 24.875 C-86.75546875 24.89304687 -87.7609375 24.91109375 -88.796875 24.9296875 C-89.88742188 24.96449219 -89.88742188 24.96449219 -91 25 C-90.34 26.32 -89.68 27.64 -89 29 C-91.95012857 27.63029745 -94.5652222 26.17390875 -97 24 C-97 23.01 -97 22.02 -97 21 C-85.85159652 21.58382626 -74.82179365 22.75902386 -63.74185181 24.0987854 C-48.1800778 25.97836415 -32.62788176 27.76086618 -17 29 C-18.10214844 28.39414063 -19.20429687 27.78828125 -20.33984375 27.1640625 C-25.23833321 24.46364106 -30.12100846 21.7354589 -35 19 C-35.83192871 18.53577637 -36.66385742 18.07155273 -37.52099609 17.59326172 C-39.89626694 16.26203488 -42.2617304 14.91489274 -44.625 13.5625 C-45.36484131 13.15016113 -46.10468262 12.73782227 -46.86694336 12.31298828 C-48.6297485 11.2933574 -50.32373922 10.15640775 -52 9 C-52 8.01 -52 7.02 -52 6 C-34.18 5.01 -16.36 4.02 2 3 C1.01 2.34 0.02 1.68 -1 1 C-0.67 0.67 -0.34 0.34 0 0 Z " fill="#F5EFE2" transform="translate(104,94)"/>
<path d="M0 0 C1.77734375 0.16796875 1.77734375 0.16796875 4 1 C5.81640625 3.36328125 5.81640625 3.36328125 7.5625 6.3125 C9.98645448 10.37458833 9.98645448 10.37458833 12.71484375 14.23046875 C14 16 14 16 14 18 C14.66 18 15.32 18 16 18 C16.33 19.65 16.66 21.3 17 23 C13.95415755 22.67071974 11.32921741 22.15154452 8.5390625 20.8671875 C2.9311228 18.26588724 2.9311228 18.26588724 -3.05078125 18.8515625 C-4.96195243 19.75778672 -6.845141 20.72662022 -8.6875 21.765625 C-11 23 -11 23 -14 23 C-13.43697042 19.05879291 -12.3208055 16.2491277 -10 13 C-9.34 13 -8.68 13 -8 13 C-7.79375 12.34 -7.5875 11.68 -7.375 11 C-5.48847129 6.88393737 -2.79432021 3.5412297 0 0 Z " fill="#EAE6E1" transform="translate(158,16)"/>
<path d="M0 0 C3.60540677 2.40360452 3.76977624 3.57551346 5 7.625 C5.34160156 8.71039063 5.68320313 9.79578125 6.03515625 10.9140625 C6.35355469 11.93242188 6.67195312 12.95078125 7 14 C8.30205951 17.74938602 9.74363818 21.41284873 11.33203125 25.05078125 C12.03392578 26.66533203 12.03392578 26.66533203 12.75 28.3125 C13.19859375 29.31925781 13.6471875 30.32601562 14.109375 31.36328125 C15 34 15 34 14 37 C13.29875 36.41992188 12.5975 35.83984375 11.875 35.2421875 C10.92625 34.46101563 9.9775 33.67984375 9 32.875 C8.00355469 32.05 7.00710937 31.225 5.98046875 30.375 C3.48679664 28.3879061 0.96826579 26.62961726 -1.6875 24.875 C-4.57776797 22.71764252 -4.92121609 22.41755472 -5.625 18.6875 C-5.41875 17.470625 -5.2125 16.25375 -5 15 C-4.87753906 14.26265625 -4.75507813 13.5253125 -4.62890625 12.765625 C-3.74292656 8.09267015 -2.35419734 4.17334982 0 0 Z " fill="#E7A43C" transform="translate(158,42)"/>
<path d="M0 0 C0.99 0 1.98 0 3 0 C7.04748515 10.30742198 11.0260766 20.64013997 14.9375 31 C15.3389624 32.05638672 15.7404248 33.11277344 16.15405273 34.20117188 C16.52473877 35.18666016 16.8954248 36.17214844 17.27734375 37.1875 C17.60984131 38.06792969 17.94233887 38.94835937 18.28491211 39.85546875 C19 42 19 42 19 44 C16.17465456 44.23301818 14.54006082 44.36459802 12.1484375 42.75 C11.27058594 41.88375 11.27058594 41.88375 10.375 41 C9.68664062 40.3709375 8.99828125 39.741875 8.2890625 39.09375 C7.53367188 38.4028125 6.77828125 37.711875 6 37 C-0.11758113 31.30364081 -0.11758113 31.30364081 -7.80859375 28.68359375 C-10.91434205 28.95750642 -13.92660971 29.47641192 -17 30 C-19.91341848 30.25180211 -22.83001812 30.40783105 -25.75 30.5625 C-27.14068271 30.64618184 -28.53131333 30.73073666 -29.921875 30.81640625 C-31.44554688 30.90728516 -31.44554688 30.90728516 -33 31 C-32.16967294 26.2520389 -29.20301375 24.47861194 -25.5 21.75 C-24.21574 20.77437957 -22.93318812 19.7965066 -21.65234375 18.81640625 C-21.02569824 18.3383252 -20.39905273 17.86024414 -19.75341797 17.36767578 C-15.9996521 14.4397175 -12.51746521 11.20340582 -9 8 C-2.31905782 2 -2.31905782 2 0 2 C0 1.34 0 0.68 0 0 Z M1 3 C0.236875 3.639375 -0.52625 4.27875 -1.3125 4.9375 C-4 7 -4 7 -7 8 C-7.86818359 9.09828125 -7.86818359 9.09828125 -8.75390625 10.21875 C-11.46385464 13.57437305 -14.50827471 15.91995062 -17.9375 18.5 C-22.26220897 21.77448802 -26.25007781 25.07218776 -30 29 C-24.60148187 29.19994512 -19.93768123 28.71457111 -14.6875 27.4375 C-5.78609851 25.98843464 -5.78609851 25.98843464 -1.70410156 28.30029297 C0.73987082 30.09446696 3.06229659 31.97722668 5.375 33.9375 C6.96545376 35.23912735 8.55656697 36.53994947 10.1484375 37.83984375 C10.84114746 38.42113037 11.53385742 39.00241699 12.24755859 39.60131836 C13.95703355 41.06535632 13.95703355 41.06535632 16 42 C15.36064505 38.25229171 14.29207053 34.96140717 12.875 31.4375 C11.21471934 27.23113297 9.64501211 23.01809445 8.18359375 18.73828125 C7.71880615 17.37908569 7.71880615 17.37908569 7.24462891 15.99243164 C6.62765731 14.17722946 6.01656135 12.36001863 5.41162109 10.54077148 C5.12754395 9.70747314 4.8434668 8.8741748 4.55078125 8.015625 C4.29981689 7.26571289 4.04885254 6.51580078 3.7902832 5.74316406 C3.13143133 3.80323191 3.13143133 3.80323191 1 3 Z " fill="#F3EADC" transform="translate(157,37)"/>
<path d="M0 0 C6.14483771 -0.08948793 11.9354449 -0.0322647 18 1 C25.10641358 1.35667773 25.10641358 1.35667773 32 0 C32 0.99 32 1.98 32 3 C31.01 3 30.02 3 29 3 C28.7525 3.78375 28.505 4.5675 28.25 5.375 C26.80505715 8.40937999 25.94434181 8.67029725 23 10 C22.67 10.99 22.34 11.98 22 13 C18.625 14.75 18.625 14.75 15 16 C14.01 15.67 13.02 15.34 12 15 C17.75 12 17.75 12 20 12 C20 11.01 20 10.02 20 9 C19.01 9 18.02 9 17 9 C17 8.34 17 7.68 17 7 C15.94039062 6.81244141 15.94039062 6.81244141 14.859375 6.62109375 C11.88194836 5.97435763 9.11762168 5.08941857 6.25 4.0625 C5.28578125 3.72347656 4.3215625 3.38445312 3.328125 3.03515625 C1 2 1 2 0 0 Z " fill="#F9B141" transform="translate(71,125)"/>
<path d="M0 0 C3.95043963 0.57878534 6.12702362 2.5146571 9.125 5.0625 C10.10339844 5.88363281 11.08179688 6.70476562 12.08984375 7.55078125 C13.05019531 8.35902344 14.01054687 9.16726562 15 10 C16.55774733 11.2559178 18.12009596 12.50615483 19.6875 13.75 C24.33208986 17.45515016 28.94983929 21.1927391 33.5625 24.9375 C34.27817139 25.51790039 34.99384277 26.09830078 35.73120117 26.69628906 C36.39869385 27.23866211 37.06618652 27.78103516 37.75390625 28.33984375 C38.35533447 28.82831787 38.9567627 29.31679199 39.57641602 29.82006836 C43.82054195 33.33779442 43.36616071 40.55537946 43.8671875 45.83007812 C44.17854554 50.91711911 43.63898377 55.95720917 43 61 C42.67 61 42.34 61 42 61 C41.94465088 60.43603516 41.88930176 59.87207031 41.83227539 59.29101562 C41.576765 56.69390274 41.319642 54.09695183 41.0625 51.5 C40.97548828 50.613125 40.88847656 49.72625 40.79882812 48.8125 C40.62351049 47.04633718 40.44052361 45.28091829 40.24975586 43.51635742 C40.09166645 41.92356413 39.96823771 40.32662505 39.89282227 38.7277832 C39.65415443 35.04504787 39.20829876 33.24113044 36.76953125 30.41796875 C35.79371094 29.68191406 34.81789062 28.94585937 33.8125 28.1875 C33.28003662 27.7742749 32.74757324 27.3610498 32.19897461 26.93530273 C31.06238613 26.05586843 29.91833215 25.18601076 28.76757812 24.32519531 C25.82709064 22.12064199 22.9502188 19.83543239 20.0625 17.5625 C19.48588623 17.11237549 18.90927246 16.66225098 18.31518555 16.19848633 C14.01762224 12.8362926 9.79897328 9.38934827 5.625 5.875 C5.05918213 5.4013501 4.49336426 4.9277002 3.91040039 4.43969727 C2.58663823 3.31662449 1.29013323 2.16154852 0 1 C0 0.67 0 0.34 0 0 Z " fill="#F6F0E2" transform="translate(15,123)"/>
<path d="M0 0 C2.02910711 0.25327449 4.04962145 0.57730068 6.0625 0.9375 C7.16722656 1.13214844 8.27195313 1.32679687 9.41015625 1.52734375 C10.26480469 1.68332031 11.11945313 1.83929688 12 2 C12 2.99 12 3.98 12 5 C8.26259972 6.12991171 4.5772168 6.30245155 0.69140625 6.53515625 C-0.38151169 6.59989388 -0.38151169 6.59989388 -1.47610474 6.66593933 C-3.79629722 6.80346043 -6.11679596 6.93391525 -8.4375 7.0625 C-9.22301239 7.10669067 -10.00852478 7.15088135 -10.81784058 7.19641113 C-20.3958283 7.7288413 -29.96765246 8.20049278 -39.5625 8.25 C-40.41062256 8.259104 -41.25874512 8.26820801 -42.13256836 8.27758789 C-47.75152588 8.24847412 -47.75152588 8.24847412 -50 6 C-24.26 4.515 -24.26 4.515 2 3 C1.01 2.34 0.02 1.68 -1 1 C-0.67 0.67 -0.34 0.34 0 0 Z " fill="#F2EAD9" transform="translate(104,94)"/>
<path d="M0 0 C0.72822464 0.0028299 1.45644928 0.00565979 2.20674133 0.00857544 C4.52992262 0.01975993 6.85271672 0.04486084 9.17578125 0.0703125 C10.75194755 0.08034456 12.3281199 0.08947002 13.90429688 0.09765625 C17.76577392 0.11969354 21.62696196 0.15421109 25.48828125 0.1953125 C25.98328125 2.6703125 25.98328125 2.6703125 26.48828125 5.1953125 C25.16828125 5.1953125 23.84828125 5.1953125 22.48828125 5.1953125 C22.15828125 6.1853125 21.82828125 7.1753125 21.48828125 8.1953125 C20.82828125 8.1953125 20.16828125 8.1953125 19.48828125 8.1953125 C19.48828125 7.5353125 19.48828125 6.8753125 19.48828125 6.1953125 C18.48667969 6.22496094 17.48507813 6.25460938 16.453125 6.28515625 C12.45660711 6.19459476 8.95153405 5.6061552 5.05078125 4.7578125 C-0.12648701 3.65995285 -5.24464841 2.73276866 -10.51171875 2.1953125 C-6.86867011 -0.23338659 -4.20449536 -0.06144425 0 0 Z " fill="#E7B566" transform="translate(104.51171875,99.8046875)"/>
<path d="M0 0 C2.41213378 2.41213378 2.31858532 3.24629832 2.5625 6.5625 C2.6346875 7.44808594 2.706875 8.33367187 2.78125 9.24609375 C2.8534375 10.15488281 2.925625 11.06367188 3 12 C3.18069427 13.70906659 3.367665 15.41748767 3.5625 17.125 C3.706875 18.40375 3.85125 19.6825 4 21 C4.33 20.34 4.66 19.68 5 19 C5.66 19 6.32 19 7 19 C6.938125 17.9275 6.87625 16.855 6.8125 15.75 C7.00647468 11.87050644 7.32159537 10.67840463 10 8 C10.66 7.67 11.32 7.34 12 7 C12.33 6.01 12.66 5.02 13 4 C13.66 4 14.32 4 15 4 C13.33735411 9.52106868 10.96269827 14.61565588 8.5 19.8125 C8.09652344 20.68326172 7.69304687 21.55402344 7.27734375 22.45117188 C6.88675781 23.27810547 6.49617188 24.10503906 6.09375 24.95703125 C5.56297852 26.08588745 5.56297852 26.08588745 5.02148438 27.23754883 C4 29 4 29 2 30 C0.64932025 19.93020011 -0.31860272 10.17758697 0 0 Z " fill="#B88834" transform="translate(61,185)"/>
<path d="M0 0 C0 1.32 0 2.64 0 4 C0.99 4.33 1.98 4.66 3 5 C2.01 5 1.02 5 0 5 C-0.12375 5.928125 -0.2475 6.85625 -0.375 7.8125 C-1 11 -1 11 -3 14 C-4.24162641 11.02009661 -5.25561083 8.1385057 -6 5 C-6.65226562 5.45890625 -7.30453125 5.9178125 -7.9765625 6.390625 C-15.51058824 11.68 -15.51058824 11.68 -19.25 14.125 C-22.35556668 16.24243183 -25.14726213 18.55479611 -28 21 C-28.66 20.67 -29.32 20.34 -30 20 C-29.29875 19.43152344 -28.5975 18.86304687 -27.875 18.27734375 C-22.71233953 14.07566764 -17.62186644 9.85452765 -12.75390625 5.3125 C-10.82995081 3.87274716 -9.30737053 3.5486741 -7 3 C-6.67 2.34 -6.34 1.68 -6 1 C-3.911361 0.32624548 -2.19636905 0 0 0 Z " fill="#F7B137" transform="translate(133,104)"/>
<path d="M0 0 C5.17226615 4.6873662 8.98925493 10.31728181 13 16 C12.67 16.66 12.34 17.32 12 18 C8.04 16.02 4.08 14.04 0 12 C0 8.04 0 4.08 0 0 Z " fill="#8D7452" transform="translate(159,19)"/>
<path d="M0 0 C1.9375 0.3125 1.9375 0.3125 4 1 C4.33 1.99 4.66 2.98 5 4 C2.525 3.505 2.525 3.505 0 3 C-0.23460937 3.69480469 -0.46921875 4.38960937 -0.7109375 5.10546875 C-2.24355298 8.54688715 -4.32824412 11.35901548 -6.625 14.3125 C-7.04523438 14.86228516 -7.46546875 15.41207031 -7.8984375 15.97851562 C-8.92720039 17.32292168 -9.9629009 18.66201413 -11 20 C-9.9275 19.484375 -8.855 18.96875 -7.75 18.4375 C-4.74745101 16.99396683 -3.16753501 16.94181906 0 18 C-1.76755526 18.84026396 -3.53917263 19.67198722 -5.3125 20.5 C-6.29863281 20.9640625 -7.28476563 21.428125 -8.30078125 21.90625 C-11 23 -11 23 -14 23 C-13.43697042 19.05879291 -12.3208055 16.2491277 -10 13 C-9.34 13 -8.68 13 -8 13 C-7.79375 12.34 -7.5875 11.68 -7.375 11 C-5.48847129 6.88393737 -2.79432021 3.5412297 0 0 Z " fill="#F1EDE5" transform="translate(158,16)"/>
<path d="M0 0 C0 0.66 0 1.32 0 2 C-0.79096069 2.27094482 -0.79096069 2.27094482 -1.59790039 2.54736328 C-4.08745455 3.40270007 -6.5752257 4.26305552 -9.0625 5.125 C-9.96613281 5.43759766 -10.86976563 5.75019531 -11.80078125 6.07226562 C-18.66383065 8.47142484 -25.36235489 11.13942823 -32.03125 14.03125 C-34.987558 14.99593998 -36.17486292 15.16329174 -39 14 C-31.02541282 8.68360854 -20.81778782 5.86666956 -11.8125 2.625 C-11.09433105 2.36235352 -10.37616211 2.09970703 -9.63623047 1.82910156 C-6.19128831 0.60900082 -3.70139178 0 0 0 Z " fill="#EFEAE3" transform="translate(152,69)"/>
<path d="M0 0 C0.33 0 0.66 0 1 0 C1.13504138 1.93559313 1.23201129 3.873872 1.3125 5.8125 C1.39951172 7.43091797 1.39951172 7.43091797 1.48828125 9.08203125 C1 12 1 12 -1.28125 13.8125 C-4.45932113 15.20062302 -7.64214797 16.14407693 -11 17 C-9.24756719 13.13124122 -6.85370412 9.72353199 -4.4375 6.25 C-4.02564453 5.64800781 -3.61378906 5.04601562 -3.18945312 4.42578125 C-2.15394469 2.93098838 -1.08020393 1.46282019 0 0 Z " fill="#CEB985" transform="translate(158,19)"/>
<path d="M0 0 C1.8671875 0.265625 1.8671875 0.265625 4 1 C5.1953125 2.671875 5.1953125 2.671875 6.125 4.75 C6.45113281 5.47058594 6.77726563 6.19117187 7.11328125 6.93359375 C7.40589844 7.61550781 7.69851562 8.29742187 8 9 C8.433125 9.928125 8.86625 10.85625 9.3125 11.8125 C10 14 10 14 9 17 C8.52949219 16.36191406 8.05898437 15.72382812 7.57421875 15.06640625 C6.95160156 14.24011719 6.32898438 13.41382812 5.6875 12.5625 C5.07261719 11.73878906 4.45773438 10.91507813 3.82421875 10.06640625 C2.08702303 7.75016363 2.08702303 7.75016363 -1 7 C-0.67 4.69 -0.34 2.38 0 0 Z " fill="#F0A830" transform="translate(163,62)"/>
<path d="M0 0 C1.65 0 3.3 0 5 0 C5.7013076 6.59229145 3.49602186 10.49376557 0 16 C-0.33 16 -0.66 16 -1 16 C-1.02692484 13.70839681 -1.04636124 11.41670454 -1.0625 9.125 C-1.07410156 7.84882813 -1.08570312 6.57265625 -1.09765625 5.2578125 C-1 2 -1 2 0 0 Z " fill="#BC8324" transform="translate(96,133)"/>
<path d="M0 0 C0 0.66 0 1.32 0 2 C-4.95 3.98 -9.9 5.96 -15 8 C-14.01 8.66 -13.02 9.32 -12 10 C-12 10.66 -12 11.32 -12 12 C-15.3 11.67 -18.6 11.34 -22 11 C-22 9.68 -22 8.36 -22 7 C-18.89878289 5.82538445 -15.79357759 4.66169544 -12.6875 3.5 C-11.80642578 3.16613281 -10.92535156 2.83226563 -10.01757812 2.48828125 C-9.17001953 2.17246094 -8.32246094 1.85664062 -7.44921875 1.53125 C-6.66893311 1.23798828 -5.88864746 0.94472656 -5.0847168 0.64257812 C-3 0 -3 0 0 0 Z " fill="#F2EDE9" transform="translate(113,83)"/>
<path d="M0 0 C0.99 0.33 1.98 0.66 3 1 C2.34 1 1.68 1 1 1 C0.93941406 1.78632813 0.87882812 2.57265625 0.81640625 3.3828125 C-0.30769322 8.36327235 -2.62319794 12.41916349 -5.0625 16.875 C-5.53494141 17.75414062 -6.00738281 18.63328125 -6.49414062 19.5390625 C-7.65518074 21.69695524 -8.82392268 23.85027708 -10 26 C-10.66 26 -11.32 26 -12 26 C-10.70549838 21.41040336 -8.72654312 17.62464068 -6.375 13.5234375 C-3.98644654 9.13989905 -2.00653618 4.56807173 0 0 Z " fill="#F2E4D0" transform="translate(100,140)"/>
<path d="M0 0 C0 1.32 0 2.64 0 4 C0.99 4.33 1.98 4.66 3 5 C2.01 5 1.02 5 0 5 C-0.12375 5.928125 -0.2475 6.85625 -0.375 7.8125 C-1 11 -1 11 -3 14 C-3.12117187 13.28972656 -3.24234375 12.57945313 -3.3671875 11.84765625 C-3.53476563 10.92855469 -3.70234375 10.00945312 -3.875 9.0625 C-4.03742188 8.14597656 -4.19984375 7.22945313 -4.3671875 6.28515625 C-4.57601562 5.53105469 -4.78484375 4.77695313 -5 4 C-5.66 3.67 -6.32 3.34 -7 3 C-6.67 2.34 -6.34 1.68 -6 1 C-3.911361 0.32624548 -2.19636905 0 0 0 Z " fill="#E3A235" transform="translate(133,104)"/>
<path d="M0 0 C2.32969401 2.32969401 2.30695536 2.89265904 2.5625 6.0625 C2.6346875 6.93777344 2.706875 7.81304687 2.78125 8.71484375 C3.23133837 15.47420659 3.63118318 22.23574259 4 29 C3.34 29.33 2.68 29.66 2 30 C0.64932025 19.93020011 -0.31860272 10.17758697 0 0 Z " fill="#B8893A" transform="translate(61,185)"/>
<path d="M0 0 C0.66 0 1.32 0 2 0 C2.64964023 1.89453221 3.29455115 3.79068649 3.9375 5.6875 C4.29714844 6.74324219 4.65679687 7.79898438 5.02734375 8.88671875 C6.65046507 14.08201069 7.10690175 18.5480108 7 24 C5.19015657 21.28523485 4.50635562 19.68908906 3.7109375 16.62109375 C3.49179688 15.78255859 3.27265625 14.94402344 3.046875 14.08007812 C2.82515625 13.20802734 2.6034375 12.33597656 2.375 11.4375 C2.14554687 10.56158203 1.91609375 9.68566406 1.6796875 8.78320312 C0 2.28941127 0 2.28941127 0 0 Z " fill="#F6EBD9" transform="translate(101,141)"/>
<path d="M0 0 C0.33 0 0.66 0 1 0 C1 14.19 1 28.38 1 43 C0.01 42.67 -0.98 42.34 -2 42 C-2 41.34 -2 40.68 -2 40 C-1.34 40 -0.68 40 0 40 C0 26.8 0 13.6 0 0 Z " fill="#F8F8F7" transform="translate(152,92)"/>
<path d="M0 0 C1.11378736 3.31822704 0.87728255 5.24820779 -0.21484375 8.546875 C-0.48876953 9.39121094 -0.76269531 10.23554688 -1.04492188 11.10546875 C-1.48674805 12.41451172 -1.48674805 12.41451172 -1.9375 13.75 C-2.22818359 14.63816406 -2.51886719 15.52632812 -2.81835938 16.44140625 C-3.53639318 18.63082079 -4.26385523 20.81662189 -5 23 C-5.33 23 -5.66 23 -6 23 C-5.31589537 5.31589537 -5.31589537 5.31589537 0 0 Z " fill="#F4E7CE" transform="translate(128,129)"/>
<path d="M0 0 C12.66970387 -0.18451025 12.66970387 -0.18451025 18 1 C18 1.33 18 1.66 18 2 C15.69 2 13.38 2 11 2 C11.33 2.99 11.66 3.98 12 5 C7.61110675 4.33501617 4.0188515 2.81242323 0 1 C0 0.67 0 0.34 0 0 Z " fill="#F8BB58" transform="translate(71,125)"/>
<path d="M0 0 C0.66 0 1.32 0 2 0 C0.65150163 4.35970831 -1.04907846 8.31341438 -3.125 12.375 C-3.66382812 13.43460938 -4.20265625 14.49421875 -4.7578125 15.5859375 C-5.16773437 16.38257813 -5.57765625 17.17921875 -6 18 C-6.33 18 -6.66 18 -7 18 C-6.68978386 11.02013687 -3.5048042 5.92708478 0 0 Z " fill="#EFE7DA" transform="translate(79,184)"/>
<path d="M0 0 C13.6332574 -0.18451025 13.6332574 -0.18451025 20 1 C20 1.33 20 1.66 20 2 C15.05 2 10.1 2 5 2 C4.67 2.66 4.34 3.32 4 4 C4.598125 4.0825 5.19625 4.165 5.8125 4.25 C8.5966296 5.20455872 9.43311142 6.57132271 11 9 C9.66666667 8.33333333 8.33333333 7.66666667 7 7 C6.319375 6.731875 5.63875 6.46375 4.9375 6.1875 C2.36216749 4.6090704 1.47361907 2.59240069 0 0 Z " fill="#F6D997" transform="translate(12,118)"/>
<path d="M0 0 C0.495 0.309375 0.99 0.61875 1.5 0.9375 C1.17 1.2675 0.84 1.5975 0.5 1.9375 C-2.36688248 1.84653444 -5.20300515 1.69982012 -8.0625 1.5 C-8.86880859 1.44779297 -9.67511719 1.39558594 -10.50585938 1.34179688 C-12.50421738 1.21172624 -14.50215386 1.07520944 -16.5 0.9375 C-16.5 0.6075 -16.5 0.2775 -16.5 -0.0625 C-10.67811371 -2.53680167 -5.87477185 -2.49677804 0 0 Z " fill="#E3BE87" transform="translate(128.5,99.0625)"/>
<path d="M0 0 C0 0.99 0 1.98 0 3 C-0.66 3.66 -1.32 4.32 -2 5 C0.31 5.33 2.62 5.66 5 6 C5 6.33 5 6.66 5 7 C0.23692563 7.95261487 -4.1666528 8.08333357 -9 8 C-6.14723863 5.06799526 -3.34920216 2.35684596 0 0 Z " fill="#E4BF85" transform="translate(136,58)"/>
<path d="M0 0 C0.99 0 1.98 0 3 0 C6.44419134 10.37357631 6.44419134 10.37357631 6 16 C4 13 4 13 4 10 C3.34 10 2.68 10 2 10 C2 7.69 2 5.38 2 3 C1.01 2.67 0.02 2.34 -1 2 C-0.67 1.34 -0.34 0.68 0 0 Z " fill="#EEA82E" transform="translate(99,130)"/>
<path d="M0 0 C0.99 0 1.98 0 3 0 C3.93750716 3.66480073 4.28668844 5.40056054 2.625 8.875 C2.08875 9.57625 1.5525 10.2775 1 11 C0.67 11 0.34 11 0 11 C0 7.37 0 3.74 0 0 Z " fill="#AE7A31" transform="translate(96,136)"/>
<path d="M0 0 C3.80700968 1.49410358 5.49761624 3.6186877 7.8125 6.9375 C8.43769531 7.81277344 9.06289062 8.68804687 9.70703125 9.58984375 C10.13371094 10.38519531 10.56039062 11.18054688 11 12 C10.67 12.99 10.34 13.98 10 15 C8.70462174 13.2527456 7.41383727 11.50208483 6.125 9.75 C5.40570313 8.77546875 4.68640625 7.8009375 3.9453125 6.796875 C2.39017775 4.56097846 1.11795777 2.47127507 0 0 Z " fill="#E3DFDA" transform="translate(161,20)"/>
<path d="M0 0 C3.34072178 1.38779449 4.90199421 2.81588196 6.8125 5.875 C7.25207031 6.55304688 7.69164062 7.23109375 8.14453125 7.9296875 C9.16843185 10.40762047 8.90457722 11.52489914 8 14 C6.66101601 12.04532248 5.32870953 10.0866421 4 8.125 C3.2575 7.03445312 2.515 5.94390625 1.75 4.8203125 C0 2 0 2 0 0 Z " fill="#E9E6E1" transform="translate(141,119)"/>
<path d="M0 0 C0.33 0 0.66 0 1 0 C1 6.93 1 13.86 1 21 C0.67 21 0.34 21 0 21 C0 16.05 0 11.1 0 6 C-0.99 6 -1.98 6 -3 6 C-1.125 1.125 -1.125 1.125 0 0 Z " fill="#BAA172" transform="translate(149,71)"/>
<path d="M0 0 C-1.44781793 3.44428265 -3.27694609 5.36130962 -6.125 7.75 C-7.21167969 8.67039062 -7.21167969 8.67039062 -8.3203125 9.609375 C-8.87460938 10.06828125 -9.42890625 10.5271875 -10 11 C-10.33 10.01 -10.66 9.02 -11 8 C-9.54712339 6.66072279 -8.08752741 5.32873153 -6.625 4 C-5.81289062 3.2575 -5.00078125 2.515 -4.1640625 1.75 C-2 0 -2 0 0 0 Z " fill="#F0E8DA" transform="translate(150,45)"/>
<path d="M0 0 C0.99 0.495 0.99 0.495 2 1 C2.4140625 3.94140625 2.4140625 3.94140625 2.625 7.5625 C2.69976562 8.76003906 2.77453125 9.95757812 2.8515625 11.19140625 C2.90054688 12.11824219 2.94953125 13.04507813 3 14 C2.34 14 1.68 14 1 14 C-0.20568053 9.32798795 -0.09382426 4.78503708 0 0 Z " fill="#E5D4BD" transform="translate(58,177)"/>
<path d="M0 0 C1.32 1.32 2.64 2.64 4 4 C3.34 4 2.68 4 2 4 C2.33 6.97 2.66 9.94 3 13 C2.01 12.67 1.02 12.34 0 12 C0 8.04 0 4.08 0 0 Z " fill="#A18860" transform="translate(159,19)"/>
<path d="M0 0 C0.88336837 2.4667645 1.1312406 3.63859372 0.22265625 6.140625 C-0.16019531 6.83671875 -0.54304688 7.5328125 -0.9375 8.25 C-1.31777344 8.95640625 -1.69804688 9.6628125 -2.08984375 10.390625 C-2.39019531 10.92171875 -2.69054687 11.4528125 -3 12 C-3.66 12 -4.32 12 -5 12 C-3.41037341 7.96479403 -1.71767682 3.98188718 0 0 Z " fill="#E2D6C3" transform="translate(71,199)"/>
<path d="M0 0 C4.54805635 -0.17835515 7.8794254 0.00214565 12 2 C12 2.33 12 2.66 12 3 C10.18674449 2.88648483 8.37436643 2.75887039 6.5625 2.625 C5.04849609 2.52058594 5.04849609 2.52058594 3.50390625 2.4140625 C2.67761719 2.27742188 1.85132813 2.14078125 1 2 C0.67 1.34 0.34 0.68 0 0 Z " fill="#F2E9D7" transform="translate(31,118)"/>
<path d="M0 0 C3.27286682 2.7819368 4.96427697 6.27954067 7 10 C6.01 10 5.02 10 4 10 C1.09677182 6.35022743 0 4.74147821 0 0 Z " fill="#DDD9CE" transform="translate(136,109)"/>
<path d="M0 0 C0.66 0 1.32 0 2 0 C2 1.32 2 2.64 2 4 C2.99 4.33 3.98 4.66 5 5 C4.01 5 3.02 5 2 5 C1.67 6.98 1.34 8.96 1 11 C0.67 11 0.34 11 0 11 C0 7.37 0 3.74 0 0 Z " fill="#DCA352" transform="translate(131,104)"/>
<path d="M0 0 C3.39914975 1.13304992 4.05254451 2.12518475 6 5 C5.67 5.66 5.34 6.32 5 7 C3.02 5.68 1.04 4.36 -1 3 C-0.67 2.01 -0.34 1.02 0 0 Z " fill="#826A56" transform="translate(166,30)"/>
<path d="M0 0 C0 0.66 0 1.32 0 2 C-5.29411765 6 -5.29411765 6 -9 6 C-8 3 -8 3 -5.0625 1.3125 C-2 0 -2 0 0 0 Z " fill="#EEAA3B" transform="translate(67,150)"/>
<path d="M0 0 C0.66 0 1.32 0 2 0 C1.44271087 3.34373475 0.64826111 6.03312999 -1 9 C-1.33 9 -1.66 9 -2 9 C-2.125 5.625 -2.125 5.625 -2 2 C-1.34 1.34 -0.68 0.68 0 0 Z " fill="#AD7B2B" transform="translate(66,204)"/>
<path d="M0 0 C0 0.66 0 1.32 0 2 C-4.455 3.485 -4.455 3.485 -9 5 C-9.33 4.34 -9.66 3.68 -10 3 C-8.70990357 2.49596232 -7.41786211 1.99690074 -6.125 1.5 C-5.04605469 1.08234375 -5.04605469 1.08234375 -3.9453125 0.65625 C-2 0 -2 0 0 0 Z " fill="#F4F0EA" transform="translate(139,73)"/>
<path d="M0 0 C0.99 0 1.98 0 3 0 C2.01 3.3 1.02 6.6 0 10 C-0.33 10 -0.66 10 -1 10 C-0.67 6.7 -0.34 3.4 0 0 Z " fill="#F2E9DB" transform="translate(133,109)"/>
<path d="M0 0 C1.98 0 3.96 0 6 0 C6.66 1.65 7.32 3.3 8 5 C4.62496331 3.8141763 2.35277269 2.72426311 0 0 Z " fill="#F5D68B" transform="translate(56,102)"/>
<path d="M0 0 C0.99 0.33 1.98 0.66 3 1 C2.34 1 1.68 1 1 1 C0.67 2.98 0.34 4.96 0 7 C-0.99 7.33 -1.98 7.66 -3 8 C-1.125 2.25 -1.125 2.25 0 0 Z " fill="#E6D3BA" transform="translate(100,140)"/>
<path d="M0 0 C0.33 0.99 0.66 1.98 1 3 C0.01 4.485 0.01 4.485 -1 6 C-0.01 6.33 0.98 6.66 2 7 C0.35 7.33 -1.3 7.66 -3 8 C-2.45276317 4.62537285 -1.9451 2.91765 0 0 Z " fill="#F7F6F4" transform="translate(147,31)"/>
<path d="M0 0 C1 4 1 4 -0.4375 6.75 C-1.2109375 7.86375 -1.2109375 7.86375 -2 9 C-2.66 8.67 -3.32 8.34 -4 8 C-2.68 5.36 -1.36 2.72 0 0 Z " fill="#E9DBC6" transform="translate(83,175)"/>
<path d="M0 0 C1.46726798 3.81489674 0.43336419 6.29011622 -1 10 C-1.33 10 -1.66 10 -2 10 C-2.25 3.375 -2.25 3.375 0 0 Z " fill="#F7EEE0" transform="translate(128,129)"/>
<path d="M0 0 C1.65 0 3.3 0 5 0 C4.67 1.65 4.34 3.3 4 5 C2.68 4.34 1.36 3.68 0 3 C0 2.01 0 1.02 0 0 Z " fill="#F8F6F1" transform="translate(7,115)"/>
<path d="M0 0 C-1.15173355 2.46800047 -2.04783565 4.04783565 -4 6 C-4.99 5.67 -5.98 5.34 -7 5 C-2.25 0 -2.25 0 0 0 Z " fill="#F3EDE3" transform="translate(157,39)"/>
</svg>
